<mxfile host="app.diagrams.net" modified="2020-05-06T13:26:56.712Z" agent="5.0 (X11; Linux x86_64) AppleWebKit/537.36 (KHTML, like Gecko) Chrome/81.0.4044.92 Safari/537.36" etag="TYNJSlAWUmwNZb7QIkwU" version="13.0.8" type="github">
  <diagram id="olEfHgHoq6vMF3QwvCJK" name="Page-1">
    <mxGraphModel dx="1035" dy="594" grid="1" gridSize="10" guides="1" tooltips="1" connect="1" arrows="1" fold="1" page="1" pageScale="1" pageWidth="827" pageHeight="1169" math="0" shadow="0">
      <root>
        <mxCell id="0" />
        <mxCell id="1" parent="0" />
        <mxCell id="abh23JCYuXSpns3Umrt5-1" value="Ishabella" style="shape=image;html=1;verticalAlign=top;verticalLabelPosition=bottom;labelBackgroundColor=#ffffff;imageAspect=0;aspect=fixed;image=https://cdn0.iconfinder.com/data/icons/streamline-emoji-1/48/199-princess-2-128.png" parent="1" vertex="1">
          <mxGeometry x="100" y="210" width="100" height="100" as="geometry" />
        </mxCell>
        <mxCell id="abh23JCYuXSpns3Umrt5-6" style="rounded=0;orthogonalLoop=1;jettySize=auto;html=1;" parent="1" source="abh23JCYuXSpns3Umrt5-3" target="abh23JCYuXSpns3Umrt5-5" edge="1">
          <mxGeometry relative="1" as="geometry" />
        </mxCell>
        <mxCell id="abh23JCYuXSpns3Umrt5-3" value="worker&lt;br&gt;with xml adapter" style="outlineConnect=0;dashed=0;verticalLabelPosition=bottom;verticalAlign=top;align=center;html=1;shape=mxgraph.aws3.worker;fillColor=#D9A741;gradientColor=none;" parent="1" vertex="1">
          <mxGeometry x="410" y="107" width="60" height="63" as="geometry" />
        </mxCell>
        <mxCell id="abh23JCYuXSpns3Umrt5-4" value="worker&lt;br&gt;with aok adapter" style="outlineConnect=0;dashed=0;verticalLabelPosition=bottom;verticalAlign=top;align=center;html=1;shape=mxgraph.aws3.worker;fillColor=#D9A741;gradientColor=none;" parent="1" vertex="1">
          <mxGeometry x="300" y="50" width="60" height="63" as="geometry" />
        </mxCell>
        <mxCell id="abh23JCYuXSpns3Umrt5-5" value="" style="shape=image;html=1;verticalAlign=top;verticalLabelPosition=bottom;labelBackgroundColor=#ffffff;imageAspect=0;aspect=fixed;image=https://cdn1.iconfinder.com/data/icons/hawcons/32/699748-icon-102-document-file-xml-128.png" parent="1" vertex="1">
          <mxGeometry x="520" y="10" width="80" height="80" as="geometry" />
        </mxCell>
        <mxCell id="abh23JCYuXSpns3Umrt5-8" value="pg db" style="html=1;verticalLabelPosition=bottom;align=center;labelBackgroundColor=#ffffff;verticalAlign=top;strokeWidth=2;strokeColor=#0080F0;shadow=0;dashed=0;shape=mxgraph.ios7.icons.data;" parent="1" vertex="1">
          <mxGeometry x="640" y="130" width="50" height="50" as="geometry" />
        </mxCell>
        <mxCell id="abh23JCYuXSpns3Umrt5-41" value="&lt;ol&gt;&lt;li&gt;keeps 宇宙逻辑&lt;/li&gt;&lt;li&gt;dynamic api map&lt;/li&gt;&lt;li&gt;atest&lt;/li&gt;&lt;li&gt;auto docs&lt;/li&gt;&lt;/ol&gt;" style="text;strokeColor=none;fillColor=none;html=1;whiteSpace=wrap;verticalAlign=middle;overflow=hidden;" parent="1" vertex="1">
          <mxGeometry x="75" y="320" width="150" height="80" as="geometry" />
        </mxCell>
        <mxCell id="HJWpqphvRxlC9iqjg1It-2" style="rounded=0;orthogonalLoop=1;jettySize=auto;html=1;" edge="1" parent="1" source="HJWpqphvRxlC9iqjg1It-1" target="abh23JCYuXSpns3Umrt5-8">
          <mxGeometry relative="1" as="geometry" />
        </mxCell>
        <mxCell id="HJWpqphvRxlC9iqjg1It-1" value="light&lt;br&gt;保存逻辑并执行&lt;br&gt;with pg adapter" style="shape=image;html=1;verticalAlign=top;verticalLabelPosition=bottom;labelBackgroundColor=#ffffff;imageAspect=0;aspect=fixed;image=https://cdn3.iconfinder.com/data/icons/fantasy-and-role-play-game-adventure-quest/512/Knight-128.png" vertex="1" parent="1">
          <mxGeometry x="490" y="210" width="88" height="88" as="geometry" />
        </mxCell>
        <mxCell id="HJWpqphvRxlC9iqjg1It-3" value="&lt;ol&gt;&lt;li&gt;缓存逻辑保存&lt;/li&gt;&lt;li&gt;自动生成原生资源&lt;/li&gt;&lt;li&gt;自定义资源&lt;/li&gt;&lt;li&gt;damn根据dam生成api&lt;/li&gt;&lt;/ol&gt;" style="text;strokeColor=none;fillColor=none;html=1;whiteSpace=wrap;verticalAlign=middle;overflow=hidden;" vertex="1" parent="1">
          <mxGeometry x="460" y="340" width="225" height="80" as="geometry" />
        </mxCell>
      </root>
    </mxGraphModel>
  </diagram>
</mxfile>
